<?xml version="1.0" encoding="UTF-8" standalone="no"?>
<!-- Created with Inkscape (http://www.inkscape.org/) -->

<svg
   width="210mm"
   height="297mm"
   viewBox="0 0 210 297"
   version="1.1"
   id="svg5"
   inkscape:version="1.1 (c68e22c387, 2021-05-23)"
   sodipodi:docname="buttons.svg"
   xmlns:inkscape="http://www.inkscape.org/namespaces/inkscape"
   xmlns:sodipodi="http://sodipodi.sourceforge.net/DTD/sodipodi-0.dtd"
   xmlns="http://www.w3.org/2000/svg"
   xmlns:svg="http://www.w3.org/2000/svg">
  <sodipodi:namedview
     id="namedview7"
     pagecolor="#ffffff"
     bordercolor="#999999"
     borderopacity="1"
     inkscape:pageshadow="0"
     inkscape:pageopacity="0"
     inkscape:pagecheckerboard="0"
     inkscape:document-units="mm"
     showgrid="false"
     inkscape:snap-grids="true"
     inkscape:zoom="1.4467452"
     inkscape:cx="294.79966"
     inkscape:cy="193.19227"
     inkscape:window-width="1920"
     inkscape:window-height="1001"
     inkscape:window-x="-9"
     inkscape:window-y="-9"
     inkscape:window-maximized="1"
     inkscape:current-layer="layer1" />
  <defs
     id="defs2" />
  <g
     inkscape:label="Layer 1"
     inkscape:groupmode="layer"
     id="layer1">
    <circle
       style="opacity:1;fill:#ff0000;fill-opacity:1;fill-rule:evenodd;stroke-width:0.264583"
       id="path823"
       cx="40"
       cy="40"
       r="40" />
    <circle
       style="opacity:1;fill:#d40000;fill-opacity:1;stroke-width:1.39698"
       id="path3762"
       cx="40"
       cy="40"
       r="35" />
    <path
       style="opacity:1;fill:#ffffff;fill-opacity:0;stroke-width:0.691207"
       d="M 104.71782,151.08161 V 94.855776 l 8.86448,4.585416 c 39.29551,20.326758 100.33336,52.344018 100.32319,52.624278 -0.007,0.19009 -24.57697,12.69729 -54.60012,27.79379 l -54.58755,27.44818 z"
       id="path4428"
       transform="scale(0.26458333)" />
    <path
       style="opacity:1;fill:#ffffff;fill-opacity:0;stroke-width:0.691207"
       d="M 104.37221,151.01726 V 94.572782 l 7.77608,4.097356 c 4.27684,2.253542 28.84924,15.078502 54.60533,28.499912 25.75609,13.4214 46.82925,24.61314 46.82925,24.87052 0,0.25738 -24.5724,12.83243 -54.60533,27.94456 l -54.60533,27.4766 z"
       id="path4709"
       transform="scale(0.26458333)" />
    <path
       style="opacity:1;fill:#ffffff;fill-opacity:0;stroke-width:0.691207"
       d="M 104.37221,151.01726 V 94.572782 l 7.77608,4.097356 c 4.27684,2.253542 28.84924,15.078502 54.60533,28.499912 25.75609,13.4214 46.82925,24.61314 46.82925,24.87052 0,0.25738 -24.5724,12.83243 -54.60533,27.94456 l -54.60533,27.4766 z"
       id="path4748"
       transform="scale(0.26458333)" />
    <path
       style="opacity:1;fill:#ffffff;fill-opacity:0;stroke-width:0.691207"
       d="M 104.37221,151.01726 V 94.572782 l 7.77608,4.097356 c 4.27684,2.253542 28.84924,15.078502 54.60533,28.499912 25.75609,13.4214 46.82925,24.61314 46.82925,24.87052 0,0.25738 -24.5724,12.83243 -54.60533,27.94456 l -54.60533,27.4766 z"
       id="path4787"
       transform="scale(0.26458333)" />
    <path
       style="opacity:1;fill:#ffffff;fill-opacity:0;stroke-width:0.691207"
       d="M 104.37221,151.01726 V 94.572782 l 7.77608,4.097356 c 4.27684,2.253542 28.84924,15.078502 54.60533,28.499912 25.75609,13.4214 46.82925,24.61314 46.82925,24.87052 0,0.25738 -24.5724,12.83243 -54.60533,27.94456 l -54.60533,27.4766 z"
       id="path4826"
       transform="scale(0.26458333)" />
    <path
       style="opacity:1;fill:#ffffff;fill-opacity:0;stroke-width:0.691207"
       d="M 104.37221,151.01726 V 94.572782 l 7.77608,4.097356 c 4.27684,2.253542 28.84924,15.078502 54.60533,28.499912 25.75609,13.4214 46.82925,24.61314 46.82925,24.87052 0,0.25738 -24.5724,12.83243 -54.60533,27.94456 l -54.60533,27.4766 z"
       id="path4865"
       transform="scale(0.26458333)" />
    <path
       style="opacity:1;fill:#ffffff;fill-opacity:0;stroke-width:0.691207"
       d="M 104.37221,151.01726 V 94.572782 l 7.77608,4.097356 c 4.27684,2.253542 28.84924,15.078502 54.60533,28.499912 25.75609,13.4214 46.82925,24.61314 46.82925,24.87052 0,0.25738 -24.5724,12.83243 -54.60533,27.94456 l -54.60533,27.4766 z"
       id="path5015"
       transform="scale(0.26458333)" />
    <path
       style="opacity:1;fill:#ffffff;fill-opacity:1;stroke:#ff0000;stroke-width:0.185247"
       d="M 27.615147,39.95665 V 25.106033 l 2.122888,1.078018 c 1.167587,0.592911 7.875908,3.967175 14.907377,7.498367 7.031471,3.531189 12.784491,6.47575 12.784491,6.543465 0,0.06771 -6.70832,3.37623 -14.907378,7.352252 l -14.907378,7.22913 z"
       id="path5054" />
    <circle
       style="fill:#ff0000;fill-opacity:1;fill-rule:evenodd;stroke-width:0.264583"
       id="path823-3"
       cx="120"
       cy="40"
       r="40" />
    <circle
       style="fill:#d40000;fill-opacity:1;stroke-width:1.39698"
       id="path3762-9"
       cx="120"
       cy="40"
       r="35" />
    <rect
       style="fill:#ffffff;fill-opacity:1;stroke:#ff0000;stroke-width:0.182042"
       id="rect6686-4"
       width="9.8179579"
       height="29.817959"
       x="51.659565"
       y="98.429115"
       transform="rotate(-45)" />
    <path
       style="fill:#ffffff;fill-opacity:0;stroke-width:0.182882"
       d="M 107.7066,39.973675 V 25.097257 l 2.34539,1.213225 c 10.39694,5.378121 26.54653,13.849354 26.54384,13.923506 -0.002,0.0503 -6.50265,3.359492 -14.44628,7.353774 l -14.44295,7.262331 z"
       id="path4428-8" />
    <path
       style="fill:#ffffff;fill-opacity:0;stroke-width:0.182882"
       d="M 107.61515,39.95665 V 25.022382 l 2.05742,1.084092 c 1.13158,0.596249 7.63303,3.98952 14.44766,7.540601 6.81464,3.551079 12.39024,6.512227 12.39024,6.580325 0,0.0681 -6.50144,3.395247 -14.44766,7.393665 l -14.44766,7.26985 z"
       id="path4709-9" />
    <path
       style="fill:#ffffff;fill-opacity:0;stroke-width:0.182882"
       d="M 107.61515,39.95665 V 25.022382 l 2.05742,1.084092 c 1.13158,0.596249 7.63303,3.98952 14.44766,7.540601 6.81464,3.551079 12.39024,6.512227 12.39024,6.580325 0,0.0681 -6.50144,3.395247 -14.44766,7.393665 l -14.44766,7.26985 z"
       id="path4748-3" />
    <path
       style="fill:#ffffff;fill-opacity:0;stroke-width:0.182882"
       d="M 107.61515,39.95665 V 25.022382 l 2.05742,1.084092 c 1.13158,0.596249 7.63303,3.98952 14.44766,7.540601 6.81464,3.551079 12.39024,6.512227 12.39024,6.580325 0,0.0681 -6.50144,3.395247 -14.44766,7.393665 l -14.44766,7.26985 z"
       id="path4787-4" />
    <path
       style="fill:#ffffff;fill-opacity:0;stroke-width:0.182882"
       d="M 107.61515,39.95665 V 25.022382 l 2.05742,1.084092 c 1.13158,0.596249 7.63303,3.98952 14.44766,7.540601 6.81464,3.551079 12.39024,6.512227 12.39024,6.580325 0,0.0681 -6.50144,3.395247 -14.44766,7.393665 l -14.44766,7.26985 z"
       id="path4826-4" />
    <path
       style="fill:#ffffff;fill-opacity:0;stroke-width:0.182882"
       d="M 107.61515,39.95665 V 25.022382 l 2.05742,1.084092 c 1.13158,0.596249 7.63303,3.98952 14.44766,7.540601 6.81464,3.551079 12.39024,6.512227 12.39024,6.580325 0,0.0681 -6.50144,3.395247 -14.44766,7.393665 l -14.44766,7.26985 z"
       id="path4865-1" />
    <path
       style="fill:#ffffff;fill-opacity:0;stroke-width:0.182882"
       d="M 107.61515,39.95665 V 25.022382 l 2.05742,1.084092 c 1.13158,0.596249 7.63303,3.98952 14.44766,7.540601 6.81464,3.551079 12.39024,6.512227 12.39024,6.580325 0,0.0681 -6.50144,3.395247 -14.44766,7.393665 l -14.44766,7.26985 z"
       id="path5015-2" />
    <rect
       style="opacity:1;fill:#ffffff;fill-opacity:1;stroke:#ff0000;stroke-width:0.182042"
       id="rect6686"
       width="9.8179579"
       height="29.817959"
       x="108.42912"
       y="-71.477516"
       transform="rotate(45)" />
  </g>
</svg>
